<svg id="svg" xmlns="http://www.w3.org/2000/svg" xmlns:xlink="http://www.w3.org/1999/xlink" width="40" height="40" viewBox="0 0 400 400" version="1.1"><g id="svgg"><path id="path0" d="M234.400 83.600 L 234.400 93.600 242.453 93.600 C 253.635 93.600,252.562 92.325,259.713 114.113 L 265.918 133.020 264.296 135.910 C 256.952 148.996,203.559 236.710,202.274 237.800 C 200.826 239.027,198.730 239.200,185.289 239.200 L 169.955 239.200 164.836 223.400 C 162.020 214.710,157.127 199.680,153.961 190.000 C 141.359 151.466,140.000 147.236,140.000 146.547 C 140.000 146.154,142.430 145.627,145.400 145.377 C 148.370 145.126,153.230 144.497,156.200 143.979 L 161.600 143.036 161.600 133.518 L 161.600 124.000 127.600 124.000 L 93.600 124.000 93.600 133.518 L 93.600 143.036 99.000 143.978 C 101.970 144.497,107.640 145.284,111.600 145.727 C 115.560 146.170,118.826 146.593,118.857 146.667 C 118.889 146.740,119.648 149.379,120.545 152.530 L 122.175 158.261 113.954 158.530 C 102.842 158.895,101.090 160.134,93.088 173.282 L 87.195 182.964 82.998 181.782 C 70.563 178.280,50.998 180.767,37.200 187.604 C -9.417 210.702,-13.303 277.019,30.285 305.634 C 69.572 331.426,125.040 309.485,134.388 264.455 L 135.313 260.000 141.962 260.000 L 148.610 260.000 149.528 263.644 C 150.615 267.961,155.913 273.715,160.076 275.100 C 162.576 275.932,162.972 276.533,164.884 282.403 L 166.968 288.800 161.484 288.800 L 156.000 288.800 156.000 294.714 C 156.000 301.780,155.380 301.370,167.933 302.601 C 174.781 303.272,179.410 303.262,186.439 302.559 C 199.117 301.291,198.400 301.762,198.400 294.714 L 198.400 288.800 190.137 288.800 L 181.874 288.800 179.325 281.084 C 176.802 273.445,176.792 273.356,178.376 272.247 C 180.258 270.928,183.602 265.303,184.300 262.280 L 184.790 260.161 194.995 259.856 C 214.199 259.283,214.056 259.429,242.885 211.200 C 255.116 190.740,267.160 170.492,269.651 166.204 L 274.179 158.408 278.932 173.004 L 283.685 187.600 281.243 189.098 C 239.583 214.642,238.628 276.176,279.460 303.935 C 294.133 313.911,316.819 317.904,334.200 313.572 L 338.400 312.525 338.400 301.377 C 338.400 291.075,338.294 290.272,337.000 290.800 C 288.332 310.652,246.339 258.959,277.743 217.855 C 280.658 214.040,289.275 206.560,289.917 207.287 C 290.069 207.459,292.356 214.224,294.999 222.320 L 299.804 237.040 298.275 239.632 C 291.613 250.924,300.696 266.365,314.000 266.365 C 332.556 266.365,338.999 241.873,322.842 232.754 C 319.296 230.753,318.501 229.865,317.684 226.994 C 317.154 225.127,315.079 218.605,313.075 212.499 C 308.579 198.801,308.340 199.173,320.526 200.868 C 325.802 201.602,328.965 202.592,337.400 206.149 C 338.172 206.475,338.400 204.031,338.400 195.412 L 338.400 184.252 331.000 182.368 C 325.012 180.844,321.587 180.491,313.046 180.521 L 302.491 180.557 299.168 170.078 C 297.341 164.315,294.980 157.149,293.923 154.152 C 291.572 147.492,291.544 148.000,294.257 148.000 C 300.898 148.000,307.878 143.453,311.627 136.684 L 314.000 132.400 314.268 111.432 L 314.537 90.464 312.505 88.432 C 310.039 85.966,308.095 85.865,305.308 88.058 L 303.200 89.716 303.197 109.858 C 303.194 128.424,303.072 130.200,301.632 132.561 C 297.841 138.779,288.803 139.498,287.215 133.708 C 284.544 123.972,272.437 88.722,270.811 85.946 C 265.589 77.036,258.232 73.600,244.377 73.600 L 234.400 73.600 234.400 83.600 M359.200 246.539 L 359.200 326.400 379.604 326.400 L 400.008 326.400 399.804 249.000 L 399.600 171.600 381.774 169.487 C 371.969 168.325,362.879 167.217,361.574 167.025 L 359.200 166.677 359.200 246.539 M130.478 183.200 C 131.252 185.620,135.691 199.195,140.343 213.366 C 144.994 227.537,148.800 239.327,148.800 239.566 C 148.800 239.805,145.818 240.000,142.174 240.000 L 135.547 240.000 134.496 234.200 C 131.835 219.510,120.584 202.260,107.688 193.099 L 105.377 191.457 109.288 184.937 L 113.200 178.416 121.135 178.608 L 129.070 178.800 130.478 183.200 M73.003 200.646 L 76.005 201.200 64.666 220.000 C 49.994 244.327,49.102 250.610,59.356 257.399 L 62.680 259.600 88.515 259.831 L 114.351 260.063 112.495 265.174 C 97.119 307.535,35.706 305.968,21.915 262.863 C 11.518 230.365,40.799 194.705,73.003 200.646 M100.592 213.400 C 107.636 220.188,112.493 228.587,114.703 237.800 L 115.230 240.000 95.685 240.000 L 76.140 240.000 85.470 224.430 C 96.290 206.374,94.588 207.615,100.592 213.400 " stroke="none" fill="#000000" fill-rule="evenodd"></path><path id="path2" d="" stroke="none" fill="#40444c" fill-rule="evenodd"></path><path id="path3" d="" stroke="none" fill="#40444c" fill-rule="evenodd"></path><path id="path4" d="" stroke="none" fill="#40444c" fill-rule="evenodd"></path></g></svg>
